<svg width="25" height="24" viewBox="0 0 25 24" fill="none" xmlns="http://www.w3.org/2000/svg">
<path d="M15.7894 22.0772H8.87738C8.39062 22.0784 7.92157 21.8946 7.56513 21.5631C7.20869 21.2316 6.99146 20.7771 6.95738 20.2916L6.09338 6.71716L6.92858 7.33156C7.35622 7.6379 7.88787 7.76218 8.40698 7.67716L8.97338 7.53316V11.9972C8.97338 12.1245 9.02395 12.2466 9.11397 12.3366C9.20399 12.4266 9.32608 12.4772 9.45338 12.4772C9.58069 12.4772 9.70278 12.4266 9.7928 12.3366C9.88281 12.2466 9.93338 12.1245 9.93338 11.9972V9.40516C9.93591 8.69304 10.2199 8.01081 10.7235 7.50725C11.227 7.0037 11.9093 6.71969 12.6214 6.71716H18.5734L17.671 20.2916C17.6374 20.7706 17.4256 21.2196 17.0773 21.5502C16.729 21.8807 16.2695 22.0687 15.7894 22.0772ZM7.14938 8.50276L7.93658 20.234C7.95593 20.475 8.06555 20.6999 8.24353 20.8637C8.42151 21.0274 8.65474 21.1179 8.89658 21.1172H15.8086C16.0504 21.1179 16.2837 21.0274 16.4616 20.8637C16.6396 20.6999 16.7492 20.475 16.7686 20.234L17.6134 7.67716H12.6214C12.1639 7.67968 11.7258 7.86255 11.4023 8.18607C11.0788 8.50959 10.8959 8.94765 10.8934 9.40516V11.9972C10.8934 12.3791 10.7417 12.7453 10.4716 13.0154C10.2016 13.2854 9.8353 13.4372 9.45338 13.4372C9.07147 13.4372 8.7052 13.2854 8.43515 13.0154C8.1651 12.7453 8.01338 12.3791 8.01338 11.9972V8.63716C7.71711 8.63624 7.42264 8.59094 7.13978 8.50276H7.14938Z" fill="#FCFCFC"/>
<path d="M20.0806 16.3174H17.1334V15.3574H20.0806C20.4446 15.3574 20.7938 15.2128 21.0513 14.9553C21.3087 14.6979 21.4534 14.3487 21.4534 13.9846V10.9702C21.4534 10.6061 21.3087 10.2569 21.0513 9.99948C20.7938 9.74203 20.4446 9.59739 20.0806 9.59739H18.0934V8.63739H20.0806C20.6993 8.63739 21.2926 8.88317 21.7301 9.32065C22.1676 9.75814 22.4134 10.3515 22.4134 10.9702V13.9846C22.4134 14.6033 22.1676 15.1966 21.7301 15.6341C21.2926 16.0716 20.6993 16.3174 20.0806 16.3174ZM9.45336 13.4374C9.07144 13.4374 8.70517 13.2857 8.43512 13.0156C8.16507 12.7456 8.01336 12.3793 8.01336 11.9974V8.63739C7.40223 8.63678 6.80713 8.44177 6.31416 8.08059C5.82482 7.72398 5.46033 7.22221 5.27248 6.64659C5.08463 6.07098 5.08298 5.4508 5.26776 4.87419C5.4167 4.40641 5.68274 3.98447 6.04062 3.64843C6.3985 3.3124 6.83634 3.07342 7.31256 2.95419C8.02714 2.77044 8.78526 2.87382 9.42456 3.24219C9.6397 2.90403 9.92306 2.6145 10.2565 2.39212C10.5899 2.16974 10.9661 2.01941 11.361 1.95073C11.7559 1.88206 12.1607 1.89656 12.5497 1.99331C12.9386 2.09006 13.3031 2.26692 13.6198 2.51259C14.0591 2.12392 14.6268 1.91186 15.2134 1.91739C15.5857 1.91887 15.9526 2.00626 16.2857 2.17277C16.6187 2.33928 16.9088 2.58042 17.1334 2.87739C17.4855 2.87238 17.8345 2.94494 18.1554 3.08992C18.4764 3.23489 18.7615 3.44874 18.9906 3.71628C19.2197 3.98382 19.387 4.29849 19.4808 4.63797C19.5746 4.97744 19.5926 5.33341 19.5334 5.68059C19.4179 6.25707 19.1018 6.77397 18.6414 7.13953C18.1809 7.50509 17.6058 7.69565 17.0182 7.67739H12.6214C12.1638 7.67991 11.7258 7.86278 11.4023 8.1863C11.0787 8.50981 10.8959 8.94787 10.8934 9.40539V11.9974C10.8934 12.3793 10.7416 12.7456 10.4716 13.0156C10.2015 13.2857 9.83527 13.4374 9.45336 13.4374ZM8.97336 7.53339V11.9974C8.97336 12.1247 9.02393 12.2468 9.11395 12.3368C9.20396 12.4268 9.32605 12.4774 9.45336 12.4774C9.58066 12.4774 9.70275 12.4268 9.79277 12.3368C9.88279 12.2468 9.93336 12.1247 9.93336 11.9974V9.40539C9.93589 8.69327 10.2199 8.01103 10.7234 7.50748C11.227 7.00393 11.9092 6.71992 12.6214 6.71739H17.0182C17.3758 6.73285 17.7276 6.6221 18.0118 6.4045C18.2961 6.1869 18.4949 5.87629 18.5734 5.52699C18.6096 5.32048 18.6 5.10853 18.5453 4.90614C18.4905 4.70375 18.392 4.51586 18.2566 4.35579C18.0949 4.17037 17.891 4.02651 17.6621 3.93629C17.4333 3.84608 17.1861 3.81216 16.9414 3.83739H16.6246L16.4614 3.54939C16.3342 3.34781 16.1604 3.17973 15.9547 3.05932C15.749 2.9389 15.5174 2.86966 15.2793 2.85742C15.0413 2.84519 14.8038 2.89033 14.5868 2.98903C14.3698 3.08773 14.1797 3.23711 14.0326 3.42459L13.687 3.91419L13.2934 3.46299C13.1074 3.27038 12.8833 3.11879 12.6353 3.01794C12.3873 2.91709 12.1209 2.86922 11.8534 2.87739C11.4627 2.87808 11.0815 2.99791 10.7608 3.22091C10.44 3.4439 10.1949 3.75944 10.0582 4.12539L9.81816 4.79739L9.29016 4.31739C9.05447 4.10823 8.77093 3.96028 8.46455 3.88662C8.15817 3.81295 7.83836 3.81583 7.53336 3.89499C7.18153 3.98609 6.86278 4.17517 6.61416 4.44026C6.36554 4.70534 6.19727 5.03555 6.1289 5.39249C6.06053 5.74943 6.09487 6.11845 6.22792 6.45664C6.36098 6.79484 6.5873 7.08833 6.88056 7.30299C7.09616 7.4659 7.34272 7.58313 7.60517 7.6475C7.86762 7.71188 8.14044 7.72205 8.40696 7.67739L8.97336 7.53339Z" fill="#FCFCFC"/>
<path d="M17.1333 19.1972H7.53333V20.1572H17.1333V19.1972Z" fill="#FCFCFC"/>
</svg>
