<svg width="108" height="24" viewBox="0 0 108 24" fill="none" xmlns="http://www.w3.org/2000/svg">
<path fill-rule="evenodd" clip-rule="evenodd" d="M19.7508 10.9836C19.6701 11.2819 19.5713 11.5746 19.455 11.8599C19.3457 12.1399 19.2208 12.413 19.0809 12.6779C18.6957 13.4125 18.2087 14.0843 17.6357 14.6717C17.386 14.9259 17.1219 15.1643 16.8449 15.3858C16.5832 15.5925 16.3096 15.7824 16.0256 15.9543C15.5859 16.2223 15.1225 16.4461 14.6419 16.6224C14.2984 16.7527 13.9465 16.8574 13.5888 16.9357C13.2986 17.0018 13.0049 17.0503 12.7093 17.0809C12.0367 17.1511 11.4043 16.7107 11.316 16.0233C11.2772 15.7212 11.2681 15.4151 11.2892 15.1099C11.3038 14.8987 11.4947 14.7438 11.6999 14.7483C11.9376 14.7536 12.1906 14.7542 12.1906 14.7542C12.4586 14.7431 12.7253 14.7099 12.9882 14.6549C13.2512 14.6037 13.5104 14.5333 13.764 14.4443L13.8794 14.4037C14.5989 14.1404 15.2616 13.7328 15.8299 13.2038C16.0592 12.9881 16.2717 12.7538 16.4655 12.5032C16.6782 12.2347 16.8675 11.947 17.0312 11.6436C17.1077 11.5051 17.1816 11.3619 17.2413 11.2207C17.3561 10.9709 17.4538 10.7129 17.5335 10.4487C17.6146 10.1833 17.6785 9.91264 17.7248 9.63842C17.8636 8.81294 17.8394 7.96673 17.6539 7.15126C17.603 6.92509 17.5397 6.70215 17.4642 6.48357L17.3752 6.24034C17.2526 5.92204 17.1047 5.61495 16.933 5.3223C16.4031 4.42627 15.6632 3.6848 14.7826 3.16738C13.9019 2.64996 12.9094 2.37353 11.898 2.36398C11.2101 2.35911 10.5269 2.48096 9.87996 2.72388C8.76551 3.13726 7.80092 3.88876 7.10733 4.87498C6.90392 5.16421 6.60787 5.37215 6.26952 5.44207C5.34163 5.63384 4.46168 4.79666 4.96459 3.96598C5.23604 3.51762 5.54816 3.09516 5.89766 2.70472C6.78712 1.71106 7.89275 0.953716 9.12179 0.496219C10.0175 0.162803 10.9625 -0.00509247 11.9139 0.000117636C13.6032 0.0159848 15.2469 0.571772 16.6222 1.59211C17.9975 2.61246 19.0378 4.04798 19.602 5.70402C19.6541 5.86415 19.7062 6.02428 19.75 6.18616C19.8459 6.52789 19.922 6.8753 19.9779 7.22651C20.0319 7.56682 20.0649 7.91039 20.0765 8.25511C20.1106 9.17696 20.0006 10.0984 19.7508 10.9836ZM9.82042 21.253C9.61236 21.0312 9.41805 20.7959 9.23863 20.5485C9.0601 20.3101 8.89511 20.061 8.74452 19.8025C8.32536 19.0882 8.0094 18.3138 7.80676 17.504C7.71996 17.152 7.65343 16.795 7.60752 16.4348C7.56618 16.0957 7.54489 15.7543 7.54376 15.4126C7.5404 14.8825 7.58577 14.3534 7.67924 13.8323C7.74247 13.4578 7.83125 13.0885 7.9449 12.7272C8.03495 12.4328 8.14139 12.144 8.26368 11.8625C8.53902 11.2275 9.25098 10.8755 9.88411 11.1551C10.1492 11.2722 10.4029 11.417 10.6412 11.5876C10.7972 11.6992 10.828 11.9197 10.731 12.0853C10.6018 12.3056 10.4606 12.5587 10.4606 12.5587C10.3359 12.8056 10.2302 13.0624 10.1445 13.3267C10.0557 13.5892 9.98465 13.8578 9.93199 14.1307L9.90808 14.255C9.76758 15.0346 9.7757 15.8353 9.93199 16.6116C9.99703 16.926 10.0859 17.2345 10.1976 17.5343C10.3149 17.8602 10.4598 18.1745 10.6307 18.4737C10.7077 18.6118 10.7901 18.7499 10.8777 18.8743C11.0283 19.1026 11.1943 19.3196 11.3745 19.5235C11.555 19.7292 11.7484 19.9221 11.9536 20.1009C12.5717 20.6386 13.2884 21.04 14.0603 21.2806C14.274 21.3479 14.4913 21.4023 14.7111 21.4436L14.9582 21.485C15.2845 21.5339 15.6142 21.5542 15.9438 21.5458C16.9548 21.5166 17.9422 21.221 18.8134 20.6865C19.6846 20.1521 20.4111 19.3964 20.9248 18.4902C21.2727 17.8732 21.5129 17.1969 21.6341 16.4928C21.8495 15.2684 21.7002 14.0092 21.2125 12.8815C21.0813 12.5779 21.0571 12.24 21.1613 11.926C21.468 11.001 22.6647 10.6493 23.0966 11.523C23.3166 11.9681 23.4991 12.4341 23.6412 12.9158C24.0239 14.2137 24.1018 15.5881 23.8682 16.9238C23.698 17.8973 23.3653 18.8323 22.8853 19.6865C22.0274 21.2 20.7427 22.4026 19.2054 23.131C17.6681 23.8595 15.9525 24.0787 14.2914 23.7588C14.132 23.7256 13.9726 23.6925 13.8159 23.651C13.4833 23.5665 13.156 23.4613 12.8356 23.3361C12.5252 23.2146 12.2226 23.0725 11.9297 22.9106C11.145 22.4804 10.4326 21.9206 9.82042 21.253ZM7.17197 6.99891C6.87625 7.0368 6.58315 7.09416 6.29441 7.17064C5.43237 7.38825 4.61 7.74991 3.85938 8.24154C3.57814 8.42437 3.3085 8.62583 3.05215 8.84468C2.78762 9.07061 2.53637 9.31284 2.29974 9.57007C2.18688 9.6905 2.07958 9.81746 1.97229 9.94442L1.97225 9.94447C0.875298 11.2806 0.200014 12.9353 0.0379759 14.6841C-0.124062 16.4329 0.234986 18.1912 1.06643 19.7206C1.53779 20.5801 2.15007 21.3472 2.8756 21.9872C3.8711 22.8654 5.05458 23.4825 6.32677 23.7868C6.82666 23.9063 7.33452 23.9762 7.84361 23.9965C8.78681 24.0341 9.04399 22.823 8.42035 22.0832C8.19294 21.8134 7.87176 21.6508 7.52921 21.6122C6.36114 21.4806 5.25304 20.9876 4.35158 20.1906C3.82581 19.7294 3.38273 19.1749 3.04287 18.553C2.54511 17.6373 2.27904 16.6052 2.26959 15.5533C2.26015 14.5015 2.50764 13.4643 2.98888 12.5391C3.14671 12.2381 3.32847 11.9514 3.53228 11.6819L3.69032 11.4801C3.83458 11.3028 3.98856 11.1343 4.15148 10.9754C4.73779 10.4005 5.43039 9.9557 6.18717 9.66791C6.4387 9.57253 6.69607 9.49473 6.95757 9.43503C7.21746 9.37474 7.48113 9.3337 7.74661 9.31224C7.89397 9.29545 8.05018 9.29035 8.20373 9.29003C8.53825 9.28574 8.87247 9.3124 9.20245 9.3697C9.50802 9.41893 9.80937 9.4932 10.1037 9.59181C10.8283 9.83922 11.4991 10.2323 12.0781 10.7486L12.1697 10.8323C12.3705 11.0161 12.5587 11.2144 12.7329 11.4257C12.9102 11.635 13.0712 11.8586 13.2144 12.0944C13.2144 12.0944 13.3404 12.3225 13.4549 12.5392C13.5537 12.7263 13.7781 12.8207 13.9613 12.7283C14.226 12.5947 14.4764 12.4335 14.7085 12.2475C15.2369 11.8243 15.2873 11.0345 14.8926 10.4638C14.7193 10.2129 14.5321 9.97268 14.3319 9.74435C14.0879 9.46132 13.8247 9.19672 13.5445 8.95255C13.1573 8.60783 12.7394 8.30239 12.2963 8.04039C12.0111 7.87052 11.7162 7.71901 11.4132 7.58671C11.0903 7.44796 10.7597 7.32937 10.4232 7.23156C9.64751 7.00916 8.84459 6.90649 8.0402 6.92685C7.74968 6.93326 7.45978 6.95732 7.17197 6.99891Z" fill="url(#paint0_linear_1_6993)"/>
<path d="M29.5176 6.31409H35.2256C35.9229 6.31409 36.529 6.38928 37.0439 6.53967C37.5635 6.68551 37.9941 6.88831 38.3359 7.14807C38.6777 7.40784 38.9307 7.71773 39.0947 8.07776C39.2633 8.43323 39.3477 8.81832 39.3477 9.23303C39.3477 9.91207 39.1335 10.5068 38.7051 11.0172C39.1973 11.3089 39.5641 11.6871 39.8057 12.152C40.0472 12.6168 40.168 13.1455 40.168 13.7379C40.168 14.2347 40.0837 14.6836 39.915 15.0846C39.751 15.4856 39.498 15.8297 39.1562 16.1168C38.819 16.3994 38.3906 16.6181 37.8711 16.7731C37.3561 16.9235 36.7477 16.9987 36.0459 16.9987H29.5176V6.31409ZM36.0596 10.4156C36.2464 10.4156 36.4287 10.4225 36.6064 10.4362C36.9118 10.1445 37.0645 9.81181 37.0645 9.43811C37.0645 9.05074 36.9118 8.75224 36.6064 8.5426C36.3057 8.32841 35.8636 8.22131 35.2803 8.22131H31.6846V10.4156H36.0596ZM36.1006 15.1119C36.6839 15.1119 37.126 14.9866 37.4268 14.736C37.7321 14.4853 37.8848 14.1321 37.8848 13.6764C37.8848 13.2207 37.7321 12.8652 37.4268 12.61C37.126 12.3548 36.6839 12.2272 36.1006 12.2272H31.6846V15.1119H36.1006ZM41.7542 11.6256C41.7542 10.819 41.9023 10.0807 42.1986 9.41077C42.4948 8.74084 42.9095 8.16663 43.4427 7.68811C43.9805 7.20504 44.623 6.83134 45.3704 6.56702C46.1224 6.30269 46.9541 6.17053 47.8656 6.17053C48.7725 6.17053 49.6019 6.30269 50.3538 6.56702C51.1058 6.83134 51.7484 7.20504 52.2816 7.68811C52.8193 8.16663 53.2363 8.74084 53.5326 9.41077C53.8288 10.0807 53.9769 10.819 53.9769 11.6256C53.9769 12.4368 53.8288 13.1819 53.5326 13.861C53.2363 14.5354 52.8193 15.1165 52.2816 15.6041C51.7484 16.0918 51.1058 16.4723 50.3538 16.7457C49.6019 17.0146 48.7725 17.149 47.8656 17.149C46.9541 17.149 46.1224 17.0146 45.3704 16.7457C44.623 16.4723 43.9805 16.0918 43.4427 15.6041C42.9095 15.1165 42.4948 14.5354 42.1986 13.861C41.9023 13.1819 41.7542 12.4368 41.7542 11.6256ZM43.9212 11.6256C43.9212 12.177 44.0192 12.6738 44.2152 13.1158C44.4157 13.5579 44.6914 13.9362 45.0423 14.2506C45.3978 14.5605 45.8148 14.7998 46.2933 14.9684C46.7764 15.137 47.3005 15.2213 47.8656 15.2213C48.4307 15.2213 48.9525 15.137 49.431 14.9684C49.9141 14.7998 50.3311 14.5605 50.682 14.2506C51.0329 13.9362 51.3086 13.5579 51.5091 13.1158C51.7096 12.6738 51.8099 12.177 51.8099 11.6256C51.8099 11.0742 51.7096 10.5797 51.5091 10.1422C51.3086 9.70471 51.0329 9.33557 50.682 9.03479C50.3311 8.72945 49.9141 8.49703 49.431 8.33752C48.9525 8.17802 48.4307 8.09827 47.8656 8.09827C47.3005 8.09827 46.7764 8.17802 46.2933 8.33752C45.8148 8.49703 45.3978 8.72945 45.0423 9.03479C44.6914 9.33557 44.4157 9.70471 44.2152 10.1422C44.0192 10.5797 43.9212 11.0742 43.9212 11.6256ZM56.404 6.31409H58.571L62.4538 10.2106L66.3366 6.31409H68.5036V16.9987H66.3366V9.31506L62.4538 13.0543L58.571 9.31506V16.9987H56.404V6.31409ZM71.5596 6.31409H77.2676C77.9649 6.31409 78.571 6.38928 79.0859 6.53967C79.6055 6.68551 80.0361 6.88831 80.3779 7.14807C80.7197 7.40784 80.9727 7.71773 81.1367 8.07776C81.3053 8.43323 81.3897 8.81832 81.3897 9.23303C81.3897 9.91207 81.1755 10.5068 80.7471 11.0172C81.2393 11.3089 81.6061 11.6871 81.8477 12.152C82.0892 12.6168 82.21 13.1455 82.21 13.7379C82.21 14.2347 82.1257 14.6836 81.957 15.0846C81.793 15.4856 81.54 15.8297 81.1982 16.1168C80.861 16.3994 80.4326 16.6181 79.9131 16.7731C79.3981 16.9235 78.7897 16.9987 78.0879 16.9987H71.5596V6.31409ZM78.1016 10.4156C78.2884 10.4156 78.4707 10.4225 78.6484 10.4362C78.9538 10.1445 79.1065 9.81181 79.1065 9.43811C79.1065 9.05074 78.9538 8.75224 78.6484 8.5426C78.3477 8.32841 77.9056 8.22131 77.3223 8.22131H73.7266V10.4156H78.1016ZM78.1426 15.1119C78.7259 15.1119 79.168 14.9866 79.4688 14.736C79.7741 14.4853 79.9268 14.1321 79.9268 13.6764C79.9268 13.2207 79.7741 12.8652 79.4688 12.61C79.168 12.3548 78.7259 12.2272 78.1426 12.2272H73.7266V15.1119H78.1426ZM84.4251 6.31409H93.5238V8.21448H86.5921V10.3473H92.7308V12.1315H86.5921V15.1051H93.6673V16.9987H84.4251V6.31409ZM96.0876 6.31409H101.522C102.342 6.31409 103.053 6.40068 103.655 6.57385C104.257 6.74247 104.756 6.98857 105.152 7.31213C105.549 7.6357 105.842 8.02991 106.034 8.49475C106.23 8.95959 106.328 9.48596 106.328 10.0739C106.328 10.4703 106.28 10.8486 106.184 11.2086C106.089 11.5641 105.94 11.8922 105.74 12.193C105.544 12.4938 105.296 12.7627 104.995 12.9996C104.694 13.2321 104.341 13.4257 103.935 13.5807L106.259 16.9987H103.607L101.597 13.9635H101.536L98.2546 13.9567V16.9987H96.0876V6.31409ZM101.577 12.0836C101.987 12.0836 102.345 12.0358 102.65 11.9401C102.96 11.8444 103.217 11.7099 103.423 11.5367C103.632 11.3636 103.787 11.1539 103.887 10.9078C103.992 10.6572 104.045 10.3792 104.045 10.0739C104.045 9.47685 103.84 9.01656 103.429 8.69299C103.019 8.36487 102.402 8.20081 101.577 8.20081H98.2546V12.0836H101.577Z" fill="url(#paint1_linear_1_6993)"/>
<defs>
<linearGradient id="paint0_linear_1_6993" x1="1.24579e-05" y1="-14.3698" x2="31.8261" y2="-7.91273" gradientUnits="userSpaceOnUse">
<stop stop-color="#FFAD4D"/>
<stop offset="0.543515" stop-color="#FF61D3"/>
<stop offset="1" stop-color="#3C65F4"/>
</linearGradient>
<linearGradient id="paint1_linear_1_6993" x1="28" y1="-9.97746" x2="94.6008" y2="44.0658" gradientUnits="userSpaceOnUse">
<stop stop-color="#FFAD4D"/>
<stop offset="0.543515" stop-color="#FF61D3"/>
<stop offset="1" stop-color="#3C65F4"/>
</linearGradient>
</defs>
</svg>  