<svg width="20" height="20" viewBox="0 0 20 20" fill="none" xmlns="http://www.w3.org/2000/svg">
<path fill-rule="evenodd" clip-rule="evenodd" d="M10 10.625C8.04403 10.625 6.45837 12.2107 6.45837 14.1667V15C6.45837 15.3452 6.17855 15.625 5.83337 15.625C5.4882 15.625 5.20837 15.3452 5.20837 15V14.1667C5.20837 11.5203 7.35368 9.375 10 9.375C12.6464 9.375 14.7917 11.5203 14.7917 14.1667V15C14.7917 15.3452 14.5119 15.625 14.1667 15.625C13.8215 15.625 13.5417 15.3452 13.5417 15V14.1667C13.5417 12.2107 11.956 10.625 10 10.625Z" fill="url(#paint0_linear_2011_98)"/>
<path fill-rule="evenodd" clip-rule="evenodd" d="M3.33337 12.2917C2.29784 12.2917 1.45837 13.1311 1.45837 14.1667V15C1.45837 15.3452 1.17855 15.625 0.833374 15.625C0.488196 15.625 0.208374 15.3452 0.208374 15V14.1667C0.208374 12.4408 1.60748 11.0417 3.33337 11.0417V12.2917Z" fill="url(#paint1_linear_2011_98)"/>
<path fill-rule="evenodd" clip-rule="evenodd" d="M16.6666 12.2917C17.7022 12.2917 18.5416 13.1311 18.5416 14.1667V15C18.5416 15.3452 18.8214 15.625 19.1666 15.625C19.5118 15.625 19.7916 15.3452 19.7916 15V14.1667C19.7916 12.4408 18.3925 11.0417 16.6666 11.0417V12.2917Z" fill="url(#paint2_linear_2011_98)"/>
<path fill-rule="evenodd" clip-rule="evenodd" d="M10 5.625C8.96447 5.625 8.125 6.46447 8.125 7.5C8.125 8.53553 8.96447 9.375 10 9.375C11.0355 9.375 11.875 8.53553 11.875 7.5C11.875 6.46447 11.0355 5.625 10 5.625ZM6.875 7.5C6.875 5.77411 8.27411 4.375 10 4.375C11.7259 4.375 13.125 5.77411 13.125 7.5C13.125 9.22589 11.7259 10.625 10 10.625C8.27411 10.625 6.875 9.22589 6.875 7.5Z" fill="url(#paint3_linear_2011_98)"/>
<path fill-rule="evenodd" clip-rule="evenodd" d="M3.33329 8.95834C2.758 8.95834 2.29163 9.42471 2.29163 10C2.29163 10.5753 2.758 11.0417 3.33329 11.0417C3.90859 11.0417 4.37496 10.5753 4.37496 10C4.37496 9.42471 3.90859 8.95834 3.33329 8.95834ZM1.04163 10C1.04163 8.73435 2.06764 7.70834 3.33329 7.70834C4.59895 7.70834 5.62496 8.73435 5.62496 10C5.62496 11.2657 4.59895 12.2917 3.33329 12.2917C2.06764 12.2917 1.04163 11.2657 1.04163 10Z" fill="url(#paint4_linear_2011_98)"/>
<path fill-rule="evenodd" clip-rule="evenodd" d="M16.6667 8.95834C16.0914 8.95834 15.625 9.42471 15.625 10C15.625 10.5753 16.0914 11.0417 16.6667 11.0417C17.242 11.0417 17.7083 10.5753 17.7083 10C17.7083 9.42471 17.242 8.95834 16.6667 8.95834ZM14.375 10C14.375 8.73435 15.401 7.70834 16.6667 7.70834C17.9323 7.70834 18.9583 8.73435 18.9583 10C18.9583 11.2657 17.9323 12.2917 16.6667 12.2917C15.401 12.2917 14.375 11.2657 14.375 10Z" fill="url(#paint5_linear_2011_98)"/>
<defs>
<linearGradient id="paint0_linear_2011_98" x1="10" y1="9.375" x2="10" y2="15.625" gradientUnits="userSpaceOnUse">
<stop offset="0.0300098" stop-color="#FFE419"/>
<stop offset="1" stop-color="#F27611"/>
</linearGradient>
<linearGradient id="paint1_linear_2011_98" x1="1.77087" y1="11.0417" x2="1.77087" y2="15.625" gradientUnits="userSpaceOnUse">
<stop offset="0.0300098" stop-color="#FFE419"/>
<stop offset="1" stop-color="#F27611"/>
</linearGradient>
<linearGradient id="paint2_linear_2011_98" x1="18.2291" y1="11.0417" x2="18.2291" y2="15.625" gradientUnits="userSpaceOnUse">
<stop offset="0.0300098" stop-color="#FFE419"/>
<stop offset="1" stop-color="#F27611"/>
</linearGradient>
<linearGradient id="paint3_linear_2011_98" x1="10" y1="4.375" x2="10" y2="10.625" gradientUnits="userSpaceOnUse">
<stop offset="0.0300098" stop-color="#FFE419"/>
<stop offset="1" stop-color="#F27611"/>
</linearGradient>
<linearGradient id="paint4_linear_2011_98" x1="3.33329" y1="7.70834" x2="3.33329" y2="12.2917" gradientUnits="userSpaceOnUse">
<stop offset="0.0300098" stop-color="#FFE419"/>
<stop offset="1" stop-color="#F27611"/>
</linearGradient>
<linearGradient id="paint5_linear_2011_98" x1="16.6667" y1="7.70834" x2="16.6667" y2="12.2917" gradientUnits="userSpaceOnUse">
<stop offset="0.0300098" stop-color="#FFE419"/>
<stop offset="1" stop-color="#F27611"/>
</linearGradient>
</defs>
</svg>
