<svg width="28" height="28" viewBox="0 0 24 24" fill="none" xmlns="http://www.w3.org/2000/svg">
<path d="M13.125 6.84863V6.37238C13.125 5.88413 12.8107 5.47163 12.375 5.31638V1.87238C12.375 1.77292 12.3355 1.67754 12.2652 1.60721C12.1948 1.53688 12.0995 1.49738 12 1.49738C11.9005 1.49738 11.8052 1.53688 11.7348 1.60721C11.6645 1.67754 11.625 1.77292 11.625 1.87238V5.31638C11.1893 5.47163 10.875 5.88413 10.875 6.37238V6.84863C7.6875 7.38713 5.25 10.1591 5.25 13.4974C5.25 17.2196 8.27775 20.2474 12 20.2474C15.7222 20.2474 18.75 17.2196 18.75 13.4974C18.75 10.1591 16.3125 7.38713 13.125 6.84863ZM14.7218 9.38288C14.3131 9.26292 13.8966 9.17145 13.4752 9.10913C13.365 8.59388 13.2285 8.12738 13.0605 7.74563C13.7032 8.04938 14.2733 8.62313 14.7218 9.38288ZM13.8525 14.5564C13.8675 14.1829 13.875 13.8244 13.875 13.4974C13.875 13.1704 13.8675 12.8119 13.8525 12.4384C14.4746 12.4815 15.0941 12.5556 15.7087 12.6604C15.7335 12.9341 15.75 13.2124 15.75 13.4974C15.75 13.7824 15.7335 14.0599 15.7087 14.3344C15.1755 14.4274 14.556 14.5054 13.8525 14.5564ZM15.6075 15.1144C15.51 15.6709 15.363 16.1944 15.1755 16.6729C14.6962 16.8604 14.1735 17.0074 13.617 17.1049C13.707 16.5191 13.77 15.9064 13.8113 15.3079C14.4124 15.2685 15.0117 15.204 15.6075 15.1144ZM13.8113 11.6861C13.772 11.0846 13.7072 10.4851 13.617 9.88913C14.1735 9.98663 14.697 10.1336 15.1755 10.3211C15.363 10.8004 15.51 11.3231 15.6075 11.8796C15.0116 11.7907 14.4124 11.7262 13.8113 11.6861ZM13.125 13.4974C13.125 13.8829 13.1152 14.2466 13.101 14.5984C12.7492 14.6126 12.3855 14.6224 12 14.6224C11.6145 14.6224 11.2507 14.6126 10.899 14.5984C10.8847 14.2466 10.875 13.8829 10.875 13.4974C10.875 13.1119 10.8847 12.7481 10.899 12.3964C11.2507 12.3821 11.6145 12.3724 12 12.3724C12.3855 12.3724 12.7492 12.3821 13.101 12.3964C13.1152 12.7481 13.125 13.1119 13.125 13.4974ZM11.625 6.37238C11.625 6.16613 11.7937 5.99738 12 5.99738C12.2063 5.99738 12.375 6.16613 12.375 6.37238V6.74738H11.625V6.37238ZM11.9977 7.49738C12.1837 7.53188 12.4523 8.06288 12.681 9.01988C12.2275 8.98974 11.7725 8.98999 11.319 9.02063C11.547 8.06363 11.8147 7.53263 11.9977 7.49738ZM11.163 9.78863C11.4368 9.76388 11.715 9.74738 12 9.74738C12.285 9.74738 12.5625 9.76388 12.837 9.78863C12.93 10.3226 13.008 10.9414 13.059 11.6449C12.6855 11.6299 12.3277 11.6224 12 11.6224C11.6723 11.6224 11.3145 11.6299 10.941 11.6449C10.992 10.9414 11.07 10.3219 11.163 9.78863ZM10.9395 7.74563C10.7715 8.12663 10.6342 8.59313 10.5247 9.10913C10.092 9.17363 9.67575 9.26588 9.27825 9.38288C9.72675 8.62313 10.2968 8.04938 10.9395 7.74563ZM10.1475 14.5564C9.52545 14.5132 8.90593 14.4392 8.29125 14.3344C8.26488 14.0561 8.25112 13.7769 8.25 13.4974C8.25 13.2124 8.2665 12.9349 8.29125 12.6604C8.90593 12.5556 9.52545 12.4815 10.1475 12.4384C10.1325 12.8119 10.125 13.1696 10.125 13.4974C10.125 13.8251 10.1325 14.1829 10.1475 14.5564ZM10.1888 15.3086C10.228 15.9101 10.2928 16.5097 10.383 17.1056C9.8265 17.0081 9.303 16.8611 8.8245 16.6736C8.6291 16.1698 8.48438 15.6477 8.3925 15.1151C8.9775 15.2044 9.591 15.2674 10.1888 15.3086ZM10.1888 11.6861C9.58726 11.7253 8.98772 11.7901 8.39175 11.8804C8.48925 11.3239 8.63625 10.8004 8.82375 10.3219C9.303 10.1344 9.82575 9.98738 10.3823 9.88988C10.293 10.4749 10.23 11.0884 10.1888 11.6861ZM9.243 8.17388C8.84037 8.65088 8.50847 9.18333 8.2575 9.75488C7.68581 10.0056 7.15332 10.3375 6.6765 10.7404C7.24851 9.64189 8.14451 8.74589 9.243 8.17388ZM7.8855 10.7756C7.76554 11.1843 7.67407 11.6008 7.61175 12.0221C7.0965 12.1324 6.63 12.2689 6.24825 12.4369C6.552 11.7941 7.12575 11.2241 7.8855 10.7756ZM6 13.4996C6.0345 13.3136 6.5655 13.0451 7.5225 12.8164C7.49237 13.2699 7.49262 13.7249 7.52325 14.1784C6.56625 13.9504 6.03525 13.6826 6 13.4996ZM7.61175 14.9734C7.67625 15.4061 7.7685 15.8224 7.8855 16.2199C7.12575 15.7706 6.55275 15.2014 6.24825 14.5586C6.63 14.7259 7.0965 14.8631 7.61175 14.9734ZM6.6765 16.2544C7.1535 16.657 7.68596 16.9889 8.2575 17.2399C8.50819 17.8116 8.84011 18.3441 9.243 18.8209C8.14451 18.2489 7.24851 17.3529 6.6765 16.2544ZM9.27825 17.6119C9.675 17.7289 10.092 17.8211 10.5247 17.8856C10.635 18.4009 10.7715 18.8674 10.9395 19.2491C10.2968 18.9454 9.72675 18.3716 9.27825 17.6119ZM12.0023 19.4974C11.8163 19.4629 11.5478 18.9319 11.319 17.9749C11.7725 18.005 12.2275 18.0048 12.681 17.9741C12.453 18.9311 12.1853 19.4621 12.0023 19.4974ZM12.837 17.2061C12.5632 17.2309 12.285 17.2474 12 17.2474C11.715 17.2474 11.4375 17.2309 11.163 17.2061C11.0582 16.5914 10.9841 15.9719 10.941 15.3499C11.3145 15.3649 11.673 15.3724 12 15.3724C12.327 15.3724 12.6855 15.3649 13.059 15.3499C13.0159 15.9719 12.9418 16.5915 12.837 17.2061ZM13.0605 19.2491C13.2285 18.8681 13.3657 18.4016 13.4752 17.8856C13.8966 17.8232 14.3131 17.7318 14.7218 17.6119C14.2733 18.3716 13.7032 18.9454 13.0605 19.2491ZM14.757 18.8209C15.1596 18.3439 15.4915 17.8114 15.7425 17.2399C16.3142 16.9892 16.8467 16.6573 17.3235 16.2544C16.7515 17.3529 15.8555 18.2489 14.757 18.8209ZM16.1145 16.2191C16.2315 15.8224 16.3238 15.4054 16.3883 14.9726C16.9035 14.8624 17.37 14.7259 17.7518 14.5579C17.448 15.2006 16.8743 15.7706 16.1145 16.2191ZM18 13.4951C17.9655 13.6811 17.4345 13.9496 16.4775 14.1784C16.5076 13.7249 16.5074 13.2698 16.4767 12.8164C17.4337 13.0444 17.9647 13.3121 18 13.4951ZM16.3883 12.0214C16.3258 11.6001 16.2344 11.1836 16.1145 10.7749C16.8743 11.2241 17.4473 11.7934 17.7518 12.4361C17.37 12.2689 16.9035 12.1316 16.3883 12.0214ZM15.7425 9.75488C15.4918 9.18319 15.1599 8.65069 14.757 8.17388C15.8557 8.74565 16.7517 9.64171 17.3235 10.7404C16.8467 10.3375 16.3142 10.0056 15.7425 9.75488ZM12 20.9974C11.9005 20.9974 11.8052 21.0369 11.7348 21.1072C11.6645 21.1775 11.625 21.2729 11.625 21.3724V22.1224C11.625 22.2218 11.6645 22.3172 11.7348 22.3875C11.8052 22.4579 11.9005 22.4974 12 22.4974C12.0995 22.4974 12.1948 22.4579 12.2652 22.3875C12.3355 22.3172 12.375 22.2218 12.375 22.1224V21.3724C12.375 21.2729 12.3355 21.1775 12.2652 21.1072C12.1948 21.0369 12.0995 20.9974 12 20.9974ZM20.625 13.1224H19.875C19.7755 13.1224 19.6802 13.1619 19.6098 13.2322C19.5395 13.3025 19.5 13.3979 19.5 13.4974C19.5 13.5968 19.5395 13.6922 19.6098 13.7625C19.6802 13.8329 19.7755 13.8724 19.875 13.8724H20.625C20.7245 13.8724 20.8198 13.8329 20.8902 13.7625C20.9605 13.6922 21 13.5968 21 13.4974C21 13.3979 20.9605 13.3025 20.8902 13.2322C20.8198 13.1619 20.7245 13.1224 20.625 13.1224ZM4.125 13.1224H3.375C3.27554 13.1224 3.18016 13.1619 3.10984 13.2322C3.03951 13.3025 3 13.3979 3 13.4974C3 13.5968 3.03951 13.6922 3.10984 13.7625C3.18016 13.8329 3.27554 13.8724 3.375 13.8724H4.125C4.22446 13.8724 4.31984 13.8329 4.39016 13.7625C4.46049 13.6922 4.5 13.5968 4.5 13.4974C4.5 13.3979 4.46049 13.3025 4.39016 13.2322C4.31984 13.1619 4.22446 13.1224 4.125 13.1224ZM17.8335 18.8006C17.7628 18.7323 17.668 18.6945 17.5697 18.6954C17.4714 18.6962 17.3773 18.7357 17.3078 18.8052C17.2383 18.8747 17.1989 18.9688 17.198 19.0671C17.1971 19.1654 17.2349 19.2601 17.3032 19.3309L17.8335 19.8611C17.8682 19.8962 17.9096 19.9241 17.9552 19.9431C18.0007 19.9621 18.0496 19.9719 18.099 19.9719C18.1484 19.9719 18.1973 19.9621 18.2428 19.9431C18.2884 19.9241 18.3298 19.8962 18.3645 19.8611C18.4348 19.7908 18.4743 19.6954 18.4743 19.596C18.4743 19.4966 18.4348 19.4012 18.3645 19.3309L17.8335 18.8006ZM6.1665 8.19413C6.20123 8.22923 6.24258 8.25709 6.28815 8.27611C6.33373 8.29513 6.38262 8.30492 6.432 8.30492C6.48138 8.30492 6.53027 8.29513 6.57585 8.27611C6.62142 8.25709 6.66277 8.22923 6.6975 8.19413C6.7678 8.1238 6.80729 8.02844 6.80729 7.929C6.80729 7.82956 6.7678 7.7342 6.6975 7.66388L6.1665 7.13363C6.09577 7.06532 6.00105 7.02752 5.90272 7.02837C5.8044 7.02923 5.71035 7.06867 5.64082 7.13819C5.57129 7.20772 5.53185 7.30178 5.531 7.4001C5.53014 7.49842 5.56794 7.59315 5.63625 7.66388L6.1665 8.19413ZM6.1665 18.8006L5.63625 19.3309C5.56593 19.4013 5.52647 19.4968 5.52654 19.5963C5.52661 19.6958 5.56621 19.7912 5.63663 19.8615C5.70704 19.9318 5.8025 19.9713 5.90202 19.9712C6.00153 19.9711 6.09693 19.9315 6.16725 19.8611L6.6975 19.3309C6.76782 19.2605 6.80728 19.165 6.80721 19.0655C6.80714 18.966 6.76754 18.8706 6.69712 18.8003C6.62671 18.7299 6.53125 18.6905 6.43173 18.6905C6.33222 18.6906 6.23682 18.7302 6.1665 18.8006ZM17.5687 8.30363C17.6682 8.30364 17.7637 8.26427 17.8342 8.19413L18.3645 7.66388C18.4328 7.59315 18.4706 7.49842 18.4698 7.4001C18.4689 7.30178 18.4295 7.20772 18.3599 7.13819C18.2904 7.06867 18.1964 7.02923 18.098 7.02837C17.9997 7.02752 17.905 7.06532 17.8342 7.13363L17.304 7.66388C17.2517 7.71632 17.2161 7.78306 17.2017 7.85569C17.1873 7.92833 17.1948 8.0036 17.2231 8.07202C17.2514 8.14044 17.2993 8.19895 17.3608 8.24016C17.4224 8.28138 17.4947 8.30346 17.5687 8.30363Z" fill="#FCFCFC"/>
</svg>
