<svg width="21" height="20" viewBox="0 0 21 20" fill="none" xmlns="http://www.w3.org/2000/svg">
<path fill-rule="evenodd" clip-rule="evenodd" d="M10.4999 2.72794L8.22652 7.59954C8.11477 7.83901 7.92229 8.0315 7.68282 8.14325L2.81121 10.4167L7.68282 12.6901C7.92229 12.8018 8.11477 12.9943 8.22652 13.2338L10.4999 18.1054L12.7734 13.2338C12.8851 12.9943 13.0776 12.8018 13.3171 12.6901L18.1887 10.4167L13.3171 8.14325C13.0776 8.0315 12.8851 7.83901 12.7734 7.59954L10.4999 2.72794ZM9.48048 1.9566C9.88446 1.09093 11.1154 1.09093 11.5194 1.9566L13.8869 7.02974L18.96 9.39721C19.8257 9.80119 19.8257 11.0321 18.96 11.4361L13.8869 13.8036L11.5194 18.8767C11.1154 19.7424 9.88446 19.7424 9.48048 18.8767L7.11302 13.8036L2.03988 11.4361C1.17421 11.0321 1.17421 9.80119 2.03988 9.39721L7.11302 7.02974L9.48048 1.9566Z" fill="url(#paint0_linear_2011_383)"/>
<defs>
<linearGradient id="paint0_linear_2011_383" x1="10.4999" y1="1.30735" x2="10.4999" y2="19.526" gradientUnits="userSpaceOnUse">
<stop stop-color="#FFE419"/>
<stop offset="1" stop-color="#F27611"/>
</linearGradient>
</defs>
</svg>
