<svg width="20" height="20" viewBox="0 0 20 20" fill="none" xmlns="http://www.w3.org/2000/svg">
<path fill-rule="evenodd" clip-rule="evenodd" d="M7.22432 1.96874C7.40822 2.08271 7.52009 2.28366 7.52009 2.5C7.52009 5.94934 8.37524 8.41288 9.98118 10.0188C11.5871 11.6248 14.0507 12.4799 17.5 12.4799C17.7163 12.4799 17.9173 12.5918 18.0313 12.7757C18.1452 12.9596 18.156 13.1893 18.0597 13.3831C16.6636 16.1922 13.7637 18.125 10.4112 18.125C5.69677 18.125 1.875 14.3032 1.875 9.58883C1.875 6.23631 3.80775 3.33636 6.61695 1.9403C6.81068 1.84403 7.04043 1.85478 7.22432 1.96874ZM6.29763 3.57396C4.38102 4.88728 3.125 7.09181 3.125 9.58883C3.125 13.6129 6.38713 16.875 10.4112 16.875C12.9082 16.875 15.1127 15.619 16.426 13.7024C13.2986 13.5379 10.828 12.6334 9.0973 10.9027C7.36657 9.17199 6.46209 6.70141 6.29763 3.57396Z" fill="white"/>
</svg>
