<svg width="30" height="29" viewBox="0 0 25 24" fill="none" xmlns="http://www.w3.org/2000/svg">
<path d="M8.62494 19.1569C7.89407 19.8878 6.70457 19.8878 5.97332 19.1569C5.24244 18.426 5.24244 17.2361 5.97332 16.5053L7.29932 15.1796C7.33417 15.2145 7.37556 15.2422 7.42112 15.261C7.46668 15.2799 7.51551 15.2896 7.56482 15.2895C7.66419 15.2895 7.75982 15.2501 7.82994 15.1796L8.62532 14.3839L8.89044 14.649C8.92522 14.6839 8.96655 14.7115 9.01205 14.7304C9.05754 14.7492 9.10632 14.7589 9.15557 14.7589C9.24946 14.759 9.33995 14.7238 9.40907 14.6603L15.7732 8.82713C15.7856 8.81588 15.7912 8.80088 15.8013 8.78813C16.4966 8.78363 17.1491 8.51175 17.6407 8.02013C18.1364 7.52438 18.4098 6.86513 18.4098 6.16388C18.4098 5.46263 18.1364 4.80375 17.6407 4.30763C17.1449 3.8115 16.4861 3.53888 15.7848 3.53888C15.0836 3.53888 14.4247 3.81188 13.9289 4.30763C13.4369 4.79963 13.1651 5.4525 13.1606 6.14738C13.1482 6.15788 13.1336 6.16313 13.1219 6.1755L7.28807 12.5393C7.22272 12.6105 7.1874 12.7042 7.1895 12.8008C7.19159 12.8975 7.23094 12.9896 7.29932 13.0579L7.56444 13.323L6.76907 14.1184C6.73421 14.1532 6.70655 14.1945 6.68768 14.24C6.66881 14.2855 6.6591 14.3343 6.6591 14.3835C6.6591 14.4328 6.66881 14.4815 6.68768 14.527C6.70655 14.5725 6.73421 14.6138 6.76907 14.6486V14.649L5.44307 15.9746C4.41969 16.998 4.41969 18.6634 5.44307 19.6868C5.95494 20.1983 6.62732 20.4544 7.29932 20.4544C7.97132 20.4544 8.64369 20.1983 9.15519 19.6868C9.88644 18.9563 11.0759 18.9555 11.8068 19.6868C11.8416 19.7216 11.8829 19.7493 11.9284 19.7681C11.9739 19.787 12.0227 19.7967 12.0719 19.7966C12.1212 19.7967 12.17 19.787 12.2155 19.7681C12.261 19.7493 12.3023 19.7216 12.3371 19.6868C12.3719 19.652 12.3996 19.6106 12.4185 19.5651C12.4373 19.5196 12.447 19.4709 12.447 19.4216C12.447 19.3724 12.4373 19.3236 12.4185 19.2781C12.3996 19.2326 12.3719 19.1913 12.3371 19.1565C11.3141 18.1335 9.64832 18.1335 8.62494 19.1569ZM14.4584 4.83788C14.8124 4.48388 15.2834 4.28888 15.7841 4.28888C16.2847 4.28888 16.7557 4.48388 17.1097 4.83788C17.4637 5.19188 17.6591 5.66288 17.6591 6.16388C17.6591 6.66488 17.4637 7.1355 17.1097 7.48988C16.7557 7.84425 16.2847 8.03888 15.7841 8.03888C15.2834 8.03888 14.8124 7.84388 14.4584 7.48988C14.1044 7.13588 13.9091 6.66488 13.9091 6.16388C13.9091 5.66288 14.1044 5.19225 14.4584 4.83788ZM13.3214 7.06763C13.4512 7.42088 13.6541 7.74638 13.9282 8.02013C14.2023 8.29425 14.5274 8.4975 14.8807 8.62688L14.1468 9.29925L12.6487 7.80113L13.3214 7.06763ZM12.1417 8.35463L13.5937 9.80663L9.16644 13.8645L8.08344 12.7811L12.1417 8.35463ZM20.5151 12.8723C20.4239 12.801 20.3047 12.7748 20.1937 12.804L17.1937 13.554C17.1125 13.5743 17.0405 13.6211 16.989 13.687C16.9375 13.7529 16.9095 13.8341 16.9094 13.9178V16.6121C16.7917 16.5701 16.6668 16.5428 16.5344 16.5428C15.9142 16.5428 15.4094 17.0475 15.4094 17.6678C15.4094 18.288 15.9142 18.7928 16.5344 18.7928C17.1547 18.7928 17.6594 18.288 17.6594 17.6678V14.2106L19.9094 13.6481V15.8618C19.7917 15.8198 19.6668 15.7924 19.5344 15.7924C18.9142 15.7924 18.4094 16.2971 18.4094 16.9174C18.4094 17.5376 18.9142 18.0424 19.5344 18.0424C20.1547 18.0424 20.6594 17.5376 20.6594 16.9174V13.1674C20.6593 13.1105 20.6463 13.0543 20.6213 13.0032C20.5963 12.9521 20.5599 12.9073 20.5151 12.8723ZM16.5341 18.0428C16.3271 18.0428 16.1591 17.8748 16.1591 17.6678C16.1591 17.4608 16.3271 17.2928 16.5341 17.2928C16.7411 17.2928 16.9091 17.4608 16.9091 17.6678C16.9091 17.8748 16.7411 18.0428 16.5341 18.0428ZM19.5341 17.2928C19.3271 17.2928 19.1591 17.1248 19.1591 16.9178C19.1591 16.7108 19.3271 16.5428 19.5341 16.5428C19.7411 16.5428 19.9091 16.7108 19.9091 16.9178C19.9091 17.1248 19.7411 17.2928 19.5341 17.2928Z" fill="#FCFCFC"/>
</svg>
