<svg width="20" height="20" viewBox="0 0 15 15" fill="none" xmlns="http://www.w3.org/2000/svg">
<path fill-rule="evenodd" clip-rule="evenodd" d="M7.47949 3.56256C7.72112 3.56256 7.91699 3.75844 7.91699 4.00006V7.06256H10.9795C11.2211 7.06256 11.417 7.25844 11.417 7.50006C11.417 7.74169 11.2211 7.93756 10.9795 7.93756H7.91699V11.0001C7.91699 11.2417 7.72112 11.4376 7.47949 11.4376C7.23787 11.4376 7.04199 11.2417 7.04199 11.0001V7.93756H3.97949C3.73787 7.93756 3.54199 7.74169 3.54199 7.50006C3.54199 7.25844 3.73787 7.06256 3.97949 7.06256H7.04199V4.00006C7.04199 3.75844 7.23787 3.56256 7.47949 3.56256Z" fill="#FCFCFD"/>
</svg>
