<svg width="20" height="20" viewBox="0 0 20 20" fill="none" xmlns="http://www.w3.org/2000/svg">
<path fill-rule="evenodd" clip-rule="evenodd" d="M12.5 9.375C12.8452 9.375 13.125 9.65482 13.125 10V12.5C13.125 12.8452 12.8452 13.125 12.5 13.125C12.1548 13.125 11.875 12.8452 11.875 12.5V10C11.875 9.65482 12.1548 9.375 12.5 9.375Z" fill="#FBFDFF"/>
<path fill-rule="evenodd" clip-rule="evenodd" d="M10 1.875C10.3452 1.875 10.625 2.15482 10.625 2.5V5C10.625 5.34518 10.3452 5.625 10 5.625C9.65482 5.625 9.375 5.34518 9.375 5V2.5C9.375 2.15482 9.65482 1.875 10 1.875Z" fill="#FBFDFF"/>
<path fill-rule="evenodd" clip-rule="evenodd" d="M15 9.375C15.3452 9.375 15.625 9.65482 15.625 10V12.5C15.625 12.8452 15.3452 13.125 15 13.125C14.6548 13.125 14.375 12.8452 14.375 12.5V10C14.375 9.65482 14.6548 9.375 15 9.375Z" fill="#FCFCFC"/>
<path fill-rule="evenodd" clip-rule="evenodd" d="M9.375 15C9.375 14.6548 9.65482 14.375 10 14.375H17.5C17.8452 14.375 18.125 14.6548 18.125 15C18.125 15.3452 17.8452 15.625 17.5 15.625H10C9.65482 15.625 9.375 15.3452 9.375 15Z" fill="#FCFCFC"/>
<path fill-rule="evenodd" clip-rule="evenodd" d="M14.375 17.5C14.375 17.1548 14.6548 16.875 15 16.875H17.5C17.8452 16.875 18.125 17.1548 18.125 17.5C18.125 17.8452 17.8452 18.125 17.5 18.125H15C14.6548 18.125 14.375 17.8452 14.375 17.5Z" fill="#FCFCFC"/>
<path fill-rule="evenodd" clip-rule="evenodd" d="M4.375 10C4.375 9.65482 4.65482 9.375 5 9.375H7.5C7.84518 9.375 8.125 9.65482 8.125 10C8.125 10.3452 7.84518 10.625 7.5 10.625H5C4.65482 10.625 4.375 10.3452 4.375 10Z" fill="#FCFCFC"/>
<path fill-rule="evenodd" clip-rule="evenodd" d="M5.42647 4.53547C5.68303 4.7664 5.7038 5.16158 5.47287 5.41813L5.46454 5.42739C5.23361 5.68394 4.83842 5.70472 4.58187 5.47379C4.32532 5.24286 4.30455 4.84767 4.53548 4.59112L4.54381 4.58186C4.77474 4.32531 5.16992 4.30454 5.42647 4.53547Z" fill="#FCFCFC"/>
<path fill-rule="evenodd" clip-rule="evenodd" d="M10.4267 9.53566C10.6831 9.7667 10.7037 10.1619 10.4727 10.4183L10.4643 10.4276C10.2333 10.684 9.83811 10.7046 9.58166 10.4736C9.32521 10.2425 9.30462 9.84735 9.53566 9.5909L9.544 9.58165C9.77504 9.32521 10.1702 9.30461 10.4267 9.53566Z" fill="#FCFCFC"/>
<path fill-rule="evenodd" clip-rule="evenodd" d="M2.92668 9.53565C3.18313 9.76669 3.20373 10.1619 2.97269 10.4183L2.96435 10.4276C2.73331 10.684 2.33812 10.7046 2.08167 10.4736C1.82522 10.2426 1.80462 9.84736 2.03566 9.59091L2.04399 9.58166C2.27503 9.32521 2.67022 9.30461 2.92668 9.53565Z" fill="#FCFCFC"/>
<path fill-rule="evenodd" clip-rule="evenodd" d="M10.4265 7.03546C10.683 7.26638 10.7038 7.66157 10.4729 7.91812L10.4645 7.92738C10.2336 8.18394 9.83844 8.20472 9.58188 7.9738C9.32532 7.74287 9.30454 7.34769 9.53547 7.09113L9.5438 7.08187C9.77472 6.82531 10.1699 6.80453 10.4265 7.03546Z" fill="#FCFCFC"/>
<path fill-rule="evenodd" clip-rule="evenodd" d="M10.4267 12.0357C10.6831 12.2667 10.7037 12.6619 10.4727 12.9183L10.4643 12.9276C10.2333 13.184 9.83811 13.2046 9.58166 12.9736C9.32521 12.7425 9.30462 12.3474 9.53566 12.0909L9.544 12.0817C9.77504 11.8252 10.1702 11.8046 10.4267 12.0357Z" fill="#FCFCFC"/>
<path fill-rule="evenodd" clip-rule="evenodd" d="M12.9267 17.0356C13.1831 17.2667 13.2037 17.6619 12.9727 17.9183L12.9644 17.9276C12.7333 18.184 12.3381 18.2046 12.0817 17.9736C11.8252 17.7426 11.8046 17.3474 12.0356 17.0909L12.044 17.0817C12.275 16.8252 12.6702 16.8046 12.9267 17.0356Z" fill="#FCFCFC"/>
<path fill-rule="evenodd" clip-rule="evenodd" d="M10.4267 17.0356C10.6831 17.2667 10.7037 17.6619 10.4727 17.9183L10.4644 17.9276C10.2333 18.184 9.83814 18.2046 9.58168 17.9736C9.32522 17.7426 9.30461 17.3474 9.53564 17.0909L9.54398 17.0817C9.77501 16.8252 10.1702 16.8046 10.4267 17.0356Z" fill="#FCFCFC"/>
<path fill-rule="evenodd" clip-rule="evenodd" d="M17.9267 9.53566C18.1831 9.7667 18.2037 10.1619 17.9727 10.4183L17.9643 10.4276C17.7333 10.684 17.3381 10.7046 17.0817 10.4736C16.8252 10.2425 16.8046 9.84735 17.0357 9.5909L17.044 9.58165C17.275 9.32521 17.6702 9.30461 17.9267 9.53566Z" fill="#FCFCFC"/>
<path fill-rule="evenodd" clip-rule="evenodd" d="M17.9267 12.0357C18.1831 12.2667 18.2037 12.6619 17.9727 12.9183L17.9643 12.9276C17.7333 13.184 17.3381 13.2046 17.0817 12.9736C16.8252 12.7425 16.8046 12.3474 17.0357 12.0909L17.044 12.0817C17.275 11.8252 17.6702 11.8046 17.9267 12.0357Z" fill="#FCFCFC"/>
<path fill-rule="evenodd" clip-rule="evenodd" d="M15.4265 4.53547C15.683 4.7664 15.7038 5.16158 15.4729 5.41813L15.4645 5.42739C15.2336 5.68394 14.8384 5.70472 14.5819 5.47379C14.3253 5.24286 14.3045 4.84767 14.5355 4.59112L14.5438 4.58186C14.7747 4.32531 15.1699 4.30454 15.4265 4.53547Z" fill="#FCFCFC"/>
<path fill-rule="evenodd" clip-rule="evenodd" d="M3.125 3.125V6.875H6.875V3.125H3.125ZM1.875 3C1.875 2.37868 2.37868 1.875 3 1.875H7C7.62132 1.875 8.125 2.37868 8.125 3V7C8.125 7.62132 7.62132 8.125 7 8.125H3C2.37868 8.125 1.875 7.62132 1.875 7V3Z" fill="#FCFCFC"/>
<path fill-rule="evenodd" clip-rule="evenodd" d="M13.125 3.125V6.875H16.875V3.125H13.125ZM11.875 3C11.875 2.3787 12.3786 1.875 13 1.875H17C17.6214 1.875 18.125 2.3787 18.125 3V7C18.125 7.6213 17.6214 8.125 17 8.125H13C12.3786 8.125 11.875 7.6213 11.875 7V3Z" fill="#FCFCFC"/>
<path fill-rule="evenodd" clip-rule="evenodd" d="M5.42666 14.5356C5.68312 14.7667 5.70373 15.1619 5.4727 15.4183L5.46437 15.4276C5.23333 15.684 4.83814 15.7046 4.58168 15.4736C4.32522 15.2426 4.30461 14.8474 4.53564 14.5909L4.54398 14.5817C4.77501 14.3252 5.1702 14.3046 5.42666 14.5356Z" fill="#FCFCFC"/>
<path fill-rule="evenodd" clip-rule="evenodd" d="M3.125 13.125V16.875H6.875V13.125H3.125ZM1.875 13C1.875 12.3786 2.3787 11.875 3 11.875H7C7.6213 11.875 8.125 12.3786 8.125 13V17C8.125 17.6214 7.6213 18.125 7 18.125H3C2.3787 18.125 1.875 17.6214 1.875 17V13Z" fill="#FCFCFC"/>
</svg>
