<svg width="20" height="20" viewBox="0 0 20 20" fill="none" xmlns="http://www.w3.org/2000/svg">
<path fill-rule="evenodd" clip-rule="evenodd" d="M13.7247 13.7221C13.9688 13.478 14.3645 13.478 14.6086 13.7221L17.9419 17.0555C18.186 17.2995 18.186 17.6953 17.9419 17.9393C17.6978 18.1834 17.3021 18.1834 17.058 17.9393L13.7247 14.606C13.4806 14.3619 13.4806 13.9662 13.7247 13.7221Z" fill="#AA5AFA"/>
<path fill-rule="evenodd" clip-rule="evenodd" d="M9.16667 3.12238C5.82995 3.12238 3.125 5.82732 3.125 9.16404C3.125 12.5008 5.82995 15.2057 9.16667 15.2057C10.8381 15.2057 12.35 14.5278 13.4445 13.4305C14.5351 12.3369 15.2083 10.8297 15.2083 9.16404C15.2083 5.82732 12.5034 3.12238 9.16667 3.12238ZM1.875 9.16404C1.875 5.13697 5.13959 1.87238 9.16667 1.87238C13.1937 1.87238 16.4583 5.13697 16.4583 9.16404C16.4583 11.1739 15.6443 12.9949 14.3295 14.3132C13.0101 15.636 11.1835 16.4557 9.16667 16.4557C5.13959 16.4557 1.875 13.1911 1.875 9.16404Z" fill="#AA5AFA"/>
</svg>
