<svg width="21" height="20" viewBox="0 0 21 20" fill="none" xmlns="http://www.w3.org/2000/svg">
<path fill-rule="evenodd" clip-rule="evenodd" d="M10.5 10.625C7.62348 10.625 5.29163 12.9569 5.29163 15.8333V16.6667C5.29163 17.0118 5.0118 17.2917 4.66663 17.2917C4.32145 17.2917 4.04163 17.0118 4.04163 16.6667V15.8333C4.04163 12.2665 6.93312 9.375 10.5 9.375C14.0668 9.375 16.9583 12.2665 16.9583 15.8333V16.6667C16.9583 17.0118 16.6785 17.2917 16.3333 17.2917C15.9881 17.2917 15.7083 17.0118 15.7083 16.6667V15.8333C15.7083 12.9569 13.3764 10.625 10.5 10.625Z" fill="url(#paint0_linear_2011_486)"/>
<path fill-rule="evenodd" clip-rule="evenodd" d="M10.5 3.95834C9.00419 3.95834 7.79163 5.1709 7.79163 6.66667C7.79163 8.16244 9.00419 9.375 10.5 9.375C11.9957 9.375 13.2083 8.16244 13.2083 6.66667C13.2083 5.1709 11.9957 3.95834 10.5 3.95834ZM6.54163 6.66667C6.54163 4.48054 8.31383 2.70834 10.5 2.70834C12.6861 2.70834 14.4583 4.48054 14.4583 6.66667C14.4583 8.8528 12.6861 10.625 10.5 10.625C8.31383 10.625 6.54163 8.8528 6.54163 6.66667Z" fill="url(#paint1_linear_2011_486)"/>
<defs>
<linearGradient id="paint0_linear_2011_486" x1="10.5" y1="9.375" x2="10.5" y2="17.2917" gradientUnits="userSpaceOnUse">
<stop stop-color="#FFE419"/>
<stop offset="1" stop-color="#F27611"/>
</linearGradient>
<linearGradient id="paint1_linear_2011_486" x1="10.5" y1="2.70834" x2="10.5" y2="10.625" gradientUnits="userSpaceOnUse">
<stop stop-color="#FFE419"/>
<stop offset="1" stop-color="#F27611"/>
</linearGradient>
</defs>
</svg>
