<svg width="26" height="26" viewBox="0 0 24 24" fill="none" xmlns="http://www.w3.org/2000/svg">
<path d="M9.42239 7.36299V2.63739C9.42239 1.84299 8.77679 1.19739 7.98239 1.19739H7.02239C6.22799 1.19739 5.58239 1.84299 5.58239 2.63739V7.36299C3.84719 8.12139 2.70239 9.84699 2.70239 11.7574V21.3574C2.70239 22.1518 3.34799 22.7974 4.14239 22.7974H10.8624C11.6568 22.7974 12.3024 22.1518 12.3024 21.3574V11.7574C12.3024 9.84459 11.1576 8.12139 9.42239 7.36299ZM7.02239 2.15739H7.98239C8.24639 2.15739 8.46239 2.37339 8.46239 2.63739V3.59739H6.54239V2.63739C6.54239 2.37339 6.75599 2.15739 7.02239 2.15739ZM11.3424 15.5974H9.49679C9.28319 15.5974 9.09599 15.739 9.03599 15.9454C8.76479 16.8862 8.14799 17.5174 7.50239 17.5174C6.85679 17.5174 6.24239 16.8862 5.96879 15.9454C5.90879 15.739 5.72159 15.5974 5.50799 15.5974H3.66239V14.1574H5.50799C5.72159 14.1574 5.90879 14.0158 5.96879 13.8094C6.23999 12.8686 6.85679 12.2374 7.50239 12.2374C8.14799 12.2374 8.76239 12.8686 9.03599 13.8094C9.09599 14.0158 9.28319 14.1574 9.49679 14.1574H11.3424V15.5974ZM10.8624 21.8374H4.14239C3.87839 21.8374 3.66239 21.6214 3.66239 21.3574V16.5574H5.16239C5.61119 17.7358 6.50159 18.4774 7.50239 18.4774C8.50079 18.4774 9.39119 17.7358 9.84239 16.5574H11.3424V21.3574C11.3424 21.6214 11.1264 21.8374 10.8624 21.8374ZM11.3424 13.1974H9.83999C9.39119 12.019 8.50079 11.2774 7.49999 11.2774C6.50159 11.2774 5.61119 12.019 5.15999 13.1974H3.65999V11.7574C3.65999 10.1374 4.68959 8.68299 6.22079 8.14059C6.41279 8.07339 6.53999 7.89099 6.53999 7.68699V4.55739H8.45999V7.68939C8.45999 7.89339 8.58719 8.07339 8.77919 8.14299C10.3104 8.68539 11.34 10.1374 11.34 11.7598V13.1974H11.3424ZM21.1488 14.095L20.4432 11.6254C20.3832 11.419 20.196 11.2774 19.9824 11.2774H15.1824C14.9688 11.2774 14.7792 11.419 14.7216 11.6254L14.016 14.095C13.6944 15.223 13.896 16.423 14.5728 17.3854C15.1752 18.2422 16.0896 18.7918 17.1024 18.9214V21.8374H15.9024C15.6384 21.8374 15.4224 22.0534 15.4224 22.3174C15.4224 22.5814 15.6384 22.7974 15.9024 22.7974H19.2624C19.5264 22.7974 19.7424 22.5814 19.7424 22.3174C19.7424 22.0534 19.5264 21.8374 19.2624 21.8374H18.0624V18.9214C19.0752 18.7918 19.9896 18.2422 20.592 17.3854C21.2688 16.423 21.4704 15.223 21.1488 14.095ZM15.5424 12.2374H19.6176L20.028 13.6774H15.132L15.5424 12.2374ZM19.8072 16.8334C19.3296 17.515 18.5904 17.9374 17.7792 17.9902C17.6472 17.9998 17.5152 17.9998 17.3832 17.9902C16.572 17.935 15.8352 17.5126 15.3552 16.8334C14.9016 16.1878 14.7336 15.4006 14.8728 14.6374H20.2872C20.4288 15.4006 20.2608 16.1878 19.8072 16.8334Z" fill="white"/>
</svg>
